<svg width="67" height="67" viewBox="0 0 67 67" fill="none" xmlns="http://www.w3.org/2000/svg">
<path d="M52.3164 3.54685C56.6388 1.24502 61.5463 -0.0362801 66.4699 0.000782264C66.3139 4.96978 65.2985 9.93481 63.2973 14.5107C61.8166 17.9231 59.6957 21.0747 57.0127 23.6863C53.8912 26.9676 50.1525 29.6851 46.0412 31.6427C42.3777 33.3211 38.3888 34.3602 34.3407 34.4926C34.3381 34.5323 34.3327 34.613 34.33 34.6541C34.2695 36.7309 34.3286 38.809 34.3085 40.8871C34.3125 48.3473 34.2991 55.8061 34.3152 63.2662C34.2896 63.5958 34.3031 63.977 34.0624 64.2391C33.7423 64.5753 33.1478 64.4429 32.8977 64.0908C32.7686 63.8353 32.7793 63.5402 32.7632 63.2635C32.7686 53.6961 32.7659 44.1275 32.7659 34.5601C32.4754 34.5561 32.1862 34.5508 31.8984 34.5415C27.4859 34.1828 23.2226 32.4753 19.7676 29.7605C18.5398 28.8128 17.3105 27.8452 16.2978 26.6711C15.729 26.049 15.156 25.4308 14.6221 24.7809C12.7474 22.2898 11.4401 19.4029 10.7072 16.3942C10.1625 14.3254 9.84378 12.1916 9.82764 10.0539C12.3439 10.042 14.8561 10.5053 17.2137 11.3657C18.6487 11.8343 19.9519 12.6086 21.2645 13.3313C22.5973 14.148 23.8561 15.0799 25.0409 16.0924C26.4006 17.3592 27.7562 18.6484 28.855 20.1481C31.1346 23.3024 32.4741 27.0417 33.0833 30.8459C33.1801 31.3264 33.2662 31.8108 33.2689 32.3032C33.597 30.4779 33.7113 28.6142 34.1874 26.8141C34.8989 23.448 36.1294 20.1984 37.7756 17.1699C39.0532 15.0203 40.4868 12.9422 42.2836 11.1764C43.3945 10.1056 44.461 8.98707 45.6646 8.01551C47.7331 6.3305 49.8997 4.72093 52.3164 3.54685Z" fill="#42A62A"/>
<path d="M31.8985 34.5416C32.1863 34.5508 32.4754 34.5561 32.7659 34.5601C32.7659 44.1275 32.7686 53.6962 32.7632 63.2635C32.7794 63.5402 32.7686 63.8354 32.8977 64.0908C33.1479 64.4429 33.7423 64.5753 34.0624 64.2391C34.3031 63.977 34.2896 63.5958 34.3152 63.2662C34.2991 55.8061 34.3125 48.3473 34.3085 40.8872C34.3287 38.809 34.2695 36.7309 34.33 34.6541C34.9944 34.482 35.687 34.6475 36.3581 34.7083C40.3201 35.1557 44.2256 36.2345 47.7734 38.0426C50.4847 39.3385 52.9203 41.132 55.181 43.0818C56.4734 44.33 57.7806 45.5795 58.8364 47.0369C59.6433 48.0958 60.4085 49.1825 61.1388 50.2931C62.2672 52.1991 63.2086 54.2084 63.951 56.2892C64.3813 57.6076 64.7512 58.9445 65.0847 60.2893C65.4747 62.2907 65.7612 64.3251 65.7033 66.3675C61.6835 66.3755 57.6636 66.4152 53.6451 66.4138C52.0743 66.4244 50.5035 66.3781 48.9354 66.4628C41.1364 66.4721 33.3361 66.4641 25.5372 66.4668C21.6814 66.4483 17.8256 66.5118 13.9712 66.4125C9.3139 66.4138 4.65659 66.4072 0.000617509 66.3384C-0.0101415 65.3073 0.124346 64.2801 0.0423084 63.2503C0.0947587 63.6818 0.124346 64.116 0.192935 64.5462C0.149899 63.8062 0.147209 63.061 0.288422 62.3317C0.894962 58.2442 2.2627 54.2534 4.4051 50.6968C5.10712 49.3956 5.9786 48.1898 6.91733 47.0461C8.02417 45.516 9.37711 44.1791 10.757 42.8899C11.3662 42.4385 11.9499 41.958 12.5107 41.4484C16.3987 38.5522 20.8557 36.2994 25.6501 35.3106C27.689 34.8063 29.8004 34.6183 31.8985 34.5416Z" fill="#96BF0D"/>
</svg>
